<svg xmlns="http://www.w3.org/2000/svg" viewBox="0 0 50 30"><defs><style>.cls-1{fill:#c63030;}.cls-2{fill:#f1ebf0;}.cls-3{fill:#eee5eb;}.cls-4{fill:#172b71;}.cls-5{fill:#1d3175;}.cls-6{fill:#ce4749;}.cls-7{fill:#cc4244;}.cls-8{fill:#cd4447;}.cls-9{fill:#203477;}.cls-10{fill:#233779;}.cls-11{fill:#ddb9c2;}.cls-12{fill:#1c3075;}.cls-13{fill:#192e73;}.cls-14{fill:#cc4344;}.cls-15{fill:#273b7c;}.cls-16{fill:#273b7b;}</style></defs><g id="Слой_3" data-name="Слой 3"><path class="cls-1" d="M26.54,32H22.15l-.47-7.6c.72-3.41-.37-4.93-4.17-4.71C11.74,20,5.94,19.91.15,20V12.36c6.11.07,12.22.08,18.33.25,2.56.07,3.75-.78,3.18-3.42l.58-9.83h4.21L27,9.2c-.6,2.73.73,3.47,3.27,3.41,4.93-.11,9.86.07,14.78-.07,2.54-.07,3.57.68,3.53,3.36s-.38,4.06-3.53,3.92c-4.92-.23-9.86,0-14.78-.09-2.55-.06-3.86.7-3.27,3.42Z"/><path class="cls-2" d="M21.66,9.19c.57,2.64-.62,3.49-3.18,3.42-6.11-.17-12.22-.18-18.33-.25V10.17c2.9-.13,5.95,1.22,8.63-.91,1.7-.11,3.13,1.93,5.7.17C9.52,6.3,5.43,2.5.15.36-.52-3,2.06-1.78,3.45-1.79c15.4-.06,30.79,0,46.18,0,0,10.54,0,21.08-.05,31.63,0,.68,1.12,2.34-1,2.18l-1.07-4.2c1.94-1.56,1.58-4.63.57-5.07-2.61-1.15-5.82-2-8.35.77-1.53-.65-2.89-2.28-5.08-.82,3.35,4,8.74,5.2,11.74,9.32h-4.4c-4.32-2.86-8.29-6.23-13-8.4L27,23.15c-.59-2.72.72-3.48,3.27-3.42,4.92.11,9.86-.14,14.78.09,3.15.14,3.49-1.35,3.53-3.92s-1-3.43-3.53-3.36c-4.92.14-9.85,0-14.78.07-2.54.06-3.87-.68-3.27-3.41L29,8.8l1.45.27c.45,1.88,2,1.57,3,1,5-3.16,9.89-6.51,15.31-10.12-2.76-1.14-4.19,0-5.76.22-4.62-1.78-9.39-.68-14.1-.65L26.45-.63H22.24l-2.37.15H6.69L6.5.45,19.78,8.77Zm18.11.49C49,11.13,49.23,11,47.71,4.24Z"/><path class="cls-3" d="M.15,20c5.79-.08,11.59,0,17.36-.31,3.8-.22,4.89,1.3,4.17,4.71-1.32,2.44-.67,5-.63,7.6H20c-.58-2.94,1.37-6.26-1.37-8.87-1.53-2-3.11-1.1-4.64,0C9.7,26,5.48,29,1.25,32c-2.35-.43-.56-2.24-1.1-3.27l9.19-6.55H.15Z"/><path class="cls-4" d="M18.58,23.12c2.74,2.61.79,5.93,1.37,8.87H6.75Z"/><path class="cls-5" d="M28.89,23.59c4.76,2.17,8.73,5.54,13,8.4H28.74Z"/><path class="cls-6" d="M18.58,23.12,6.75,32H1.25c4.23-3,8.45-6,12.69-8.91C15.47,22,17.05,21.1,18.58,23.12Z"/><path class="cls-7" d="M.15.36C5.43,2.5,9.52,6.3,14.48,9.43c-2.57,1.76-4-.28-5.7-.17L.15,3.63Z"/><path class="cls-8" d="M46.34,32c-3-4.12-8.39-5.36-11.74-9.32,2.19-1.46,3.55.17,5.08.82a19.06,19.06,0,0,0,7.78,4.3L48.53,32Z"/><path class="cls-9" d="M.15,3.63,8.78,9.26c-2.68,2.13-5.73.78-8.63.91Z"/><path class="cls-10" d="M.15,22.17H9.34L.15,28.72Z"/><path class="cls-11" d="M28.89,23.59,28.74,32h-2.2L27,23.15Z"/><path class="cls-11" d="M21.05,32c0-2.56-.69-5.16.63-7.6.16,2.53.31,5.06.47,7.6Z"/><path class="cls-11" d="M21.66,9.19l-1.89-.42c0-3.09.07-6.17.1-9.26l2.37-.15Q22,4.28,21.66,9.19Z"/><path class="cls-11" d="M26.45-.63l2.37.13c0,3.1.09,6.2.13,9.3L27,9.2Z"/><path class="cls-12" d="M29,8.8c0-3.1-.09-6.2-.13-9.3,4.7,0,9.47-1.12,14.09.66C39,3.54,34,5.25,30.4,9.07Z"/><path class="cls-13" d="M19.87-.49c0,3.09-.07,6.17-.1,9.26L6.5.45l.19-.94Z"/><path class="cls-14" d="M30.4,9.07C34,5.25,39,3.54,42.91.16c1.57-.2,3-1.36,5.76-.22-5.42,3.61-10.3,7-15.31,10.12C32.44,10.64,30.85,11,30.4,9.07Z"/><path class="cls-15" d="M47.46,27.79a19.06,19.06,0,0,1-7.78-4.3c2.53-2.75,5.74-1.92,8.35-.77C49,23.16,49.4,26.23,47.46,27.79Z"/><path class="cls-16" d="M39.77,9.68l7.94-5.44C49.23,11,49,11.13,39.77,9.68Z"/></g></svg>