<svg id="Light" xmlns="http://www.w3.org/2000/svg" viewBox="0 0 283 90"><defs><style>.cls-1{fill:#ff5757;}.cls-2{fill:#2d60ff;}.cls-3{font-size:42px;fill:#202224;font-family:GetVoIPGrotesque, GetVoIP Grotesque;letter-spacing:0.13em;}.cls-4{letter-spacing:0.13em;}</style></defs><path class="cls-1" d="M245-2.48h0a17,17,0,0,1,17,17v45a34,34,0,0,1-34,34h0a0,0,0,0,1,0,0v-79a17,17,0,0,1,17-17Z" transform="translate(89.36 -149.1) rotate(40.82)"/><path class="cls-2" d="M201-3.52h0a17,17,0,0,1,17,17v45a34,34,0,0,1-34,34h0a0,0,0,0,1,0,0v-79a17,17,0,0,1,17-17Z" transform="translate(324 209.53) rotate(-139.18)"/><text class="cls-3" transform="translate(0.39 56.86)">QOLI<tspan class="cls-4" x="142.63" y="0">R</tspan><tspan x="182.24" y="0">U</tspan></text></svg>