<svg width="31" height="39" viewBox="0 0 31 39" fill="none" xmlns="http://www.w3.org/2000/svg">
<path fill-rule="evenodd" clip-rule="evenodd" d="M31 10.6999V7.75C31 3.46979 24.0604 0 15.5 0C6.93959 0 0 3.46979 0 7.75V10.6999C0.878402 12.024 2.32387 13.1702 4.12058 14.0686C7.1874 15.602 11.2811 16.4375 15.5 16.4375C19.7189 16.4375 23.8126 15.602 26.8794 14.0686C28.6761 13.1702 30.1216 12.024 31 10.6999ZM31 13.7047C30.0465 14.5584 28.9334 15.2777 27.7738 15.8575C24.3656 17.5616 19.9493 18.4375 15.5 18.4375C11.0507 18.4375 6.63443 17.5616 3.22616 15.8575C2.0666 15.2777 0.95349 14.5584 0 13.7047V22.3249C0.878402 23.649 2.32387 24.7952 4.12058 25.6936C7.1874 27.227 11.2811 28.0625 15.5 28.0625C19.7189 28.0625 23.8126 27.227 26.8794 25.6936C28.6761 24.7952 30.1216 23.649 31 22.3249V13.7047ZM31 25.3297C30.0465 26.1834 28.9334 26.9027 27.7738 27.4825C24.3656 29.1866 19.9493 30.0625 15.5 30.0625C11.0507 30.0625 6.63443 29.1866 3.22616 27.4825C2.0666 26.9027 0.95349 26.1834 0 25.3297V31C0 35.2802 6.93959 38.75 15.5 38.75C24.0604 38.75 31 35.2802 31 31V25.3297Z" fill="#484848"/>
</svg>
