<svg id="Light" xmlns="http://www.w3.org/2000/svg" viewBox="0 0 64 64"><defs><style>.cls-1{fill:#ff5757;}.cls-2{fill:#2d60ff;}</style></defs><path class="cls-1" d="M43.64,7h0A8.94,8.94,0,0,1,52.58,16V39.64A17.88,17.88,0,0,1,34.7,57.52h0a0,0,0,0,1,0,0V16A8.94,8.94,0,0,1,43.64,7Z" transform="translate(31.72 -20.68) rotate(40.82)"/><path class="cls-2" d="M20.49,6.49h0a8.94,8.94,0,0,1,8.94,8.94V39.09A17.88,17.88,0,0,1,11.55,57h0a0,0,0,0,1,0,0V15.43a8.94,8.94,0,0,1,8.94-8.94Z" transform="translate(15.25 69.14) rotate(-139.18)"/></svg>